<svg xmlns="http://www.w3.org/2000/svg" xmlns:xlink="http://www.w3.org/1999/xlink" width="1600" zoomAndPan="magnify" viewBox="0 0 1200 899.99999" height="1200" preserveAspectRatio="xMidYMid meet" version="1.0"><rect x="-120" width="1440" fill="#ffffff" y="-89.999999" height="1079.999988" fill-opacity="1"/><rect x="-120" width="1440" fill="#ffffff" y="-89.999999" height="1079.999988" fill-opacity="1"/><path fill="#000000" d="M 899.707031 265.710938 C 911.21875 250.644531 923.292969 234.859375 935.824219 218.453125 C 1034.34375 343.441406 1052.636719 588.226562 876.976562 750.335938 C 714.789062 900.011719 460.164062 893.679688 305.109375 736.21875 C 149.085938 577.792969 147.480469 325.167969 300.542969 164.945312 C 458.152344 -0.0117188 707.539062 5.269531 850.207031 125.855469 C 836.128906 138.371094 822.011719 150.921875 805.34375 165.75 C 721.171875 104.695312 621.941406 84.152344 515.246094 108.941406 C 434.132812 127.792969 367.863281 172.296875 318.042969 239.394531 C 215.554688 377.417969 226.671875 564.058594 344.074219 687.777344 C 461.484375 811.515625 647.144531 832.59375 790.960938 740.003906 C 909.289062 663.8125 1012.449219 477.894531 899.707031 265.710938 Z M 899.707031 265.710938 " fill-opacity="1" fill-rule="nonzero"/><path fill="#000000" d="M 533.992188 479.902344 C 583.0625 432.273438 630.410156 387.574219 676.332031 341.460938 C 768.28125 249.160156 859.4375 156.066406 950.992188 63.363281 C 956.6875 57.601562 962.429688 51.683594 969.011719 47.082031 C 979.507812 39.742188 990.5625 41.296875 1000.03125 49.1875 C 1010.539062 57.929688 1013.59375 69.574219 1007.785156 82.121094 C 1004.859375 88.464844 999.875 93.90625 995.546875 99.546875 C 851.679688 286.757812 707.785156 473.945312 563.902344 661.121094 C 561.414062 664.347656 559.085938 667.699219 556.402344 670.761719 C 536.769531 693.148438 519.234375 692.652344 502.425781 667.453125 C 474.210938 625.121094 447.078125 582.070312 419.511719 539.308594 C 399.113281 507.664062 378.09375 476.398438 358.53125 444.234375 C 340.875 415.21875 348.570312 383.210938 375.433594 367.113281 C 397.113281 354.132812 416.46875 356.8125 435.621094 376.757812 C 465.226562 407.589844 494.289062 438.945312 523.648438 470.015625 C 527.074219 473.65625 530.878906 476.945312 533.992188 479.902344 Z M 533.992188 479.902344 " fill-opacity="1" fill-rule="nonzero"/></svg>