<svg xmlns="http://www.w3.org/2000/svg" xmlns:xlink="http://www.w3.org/1999/xlink" width="1600" zoomAndPan="magnify" viewBox="0 0 1200 899.99999" height="1200" preserveAspectRatio="xMidYMid meet" version="1.0"><defs><clipPath id="7cfba7d3df"><path d="M 175.539062 14.652344 L 1024.539062 14.652344 L 1024.539062 873 L 175.539062 873 Z M 175.539062 14.652344 " clip-rule="nonzero"/></clipPath></defs><g clip-path="url(#7cfba7d3df)"><path fill="#39ff14" d="M 1024.425781 439.171875 C 1024.425781 673.546875 834.425781 863.546875 600.050781 863.546875 C 582.960938 863.574219 565.929688 862.566406 548.957031 860.523438 C 531.988281 858.484375 515.203125 855.425781 498.605469 851.347656 C 482.007812 847.269531 465.714844 842.199219 449.730469 836.144531 C 433.746094 830.089844 418.1875 823.089844 403.054688 815.148438 C 402.886719 815.21875 402.71875 815.292969 402.546875 815.363281 L 274.628906 868.519531 C 234.597656 885.15625 194.230469 845.546875 210.09375 805.214844 L 256.214844 687.957031 C 249.703125 678.984375 243.558594 669.773438 237.773438 660.320312 C 231.988281 650.867188 226.585938 641.199219 221.5625 631.320312 C 216.535156 621.441406 211.910156 611.378906 207.679688 601.132812 C 203.445312 590.890625 199.625 580.496094 196.210938 569.953125 C 192.796875 559.40625 189.804688 548.746094 187.230469 537.964844 C 184.65625 527.183594 182.507812 516.320312 180.789062 505.371094 C 179.070312 494.421875 177.78125 483.421875 176.929688 472.371094 C 176.078125 461.320312 175.660156 450.253906 175.675781 439.171875 C 175.675781 204.796875 365.675781 14.796875 600.050781 14.796875 C 834.425781 14.796875 1024.425781 204.796875 1024.425781 439.171875 Z M 1024.425781 439.171875 " fill-opacity="1" fill-rule="nonzero"/></g><path fill="#ffffff" d="M 969.363281 439.171875 C 969.363281 445.214844 969.214844 451.253906 968.917969 457.292969 C 968.621094 463.328125 968.179688 469.355469 967.585938 475.371094 C 966.992188 481.386719 966.253906 487.382812 965.367188 493.359375 C 964.480469 499.339844 963.445312 505.292969 962.269531 511.21875 C 961.089844 517.148438 959.765625 523.042969 958.296875 528.90625 C 956.828125 534.769531 955.214844 540.59375 953.460938 546.378906 C 951.707031 552.160156 949.8125 557.898438 947.777344 563.589844 C 945.738281 569.28125 943.566406 574.917969 941.25 580.5 C 938.9375 586.085938 936.492188 591.609375 933.90625 597.074219 C 931.320312 602.535156 928.605469 607.933594 925.757812 613.265625 C 922.90625 618.59375 919.929688 623.851562 916.820312 629.035156 C 913.714844 634.21875 910.480469 639.324219 907.125 644.351562 C 903.765625 649.375 900.285156 654.316406 896.6875 659.171875 C 893.085938 664.023438 889.367188 668.789062 885.535156 673.460938 C 881.699219 678.132812 877.753906 682.707031 873.695312 687.1875 C 869.636719 691.664062 865.46875 696.039062 861.195312 700.316406 C 856.921875 704.589844 852.546875 708.753906 848.066406 712.8125 C 843.589844 716.871094 839.011719 720.820312 834.339844 724.652344 C 829.667969 728.488281 824.90625 732.207031 820.050781 735.804688 C 815.195312 739.40625 810.257812 742.886719 805.230469 746.242188 C 800.207031 749.601562 795.101562 752.832031 789.917969 755.941406 C 784.730469 759.046875 779.476562 762.027344 774.144531 764.875 C 768.8125 767.726562 763.417969 770.441406 757.953125 773.027344 C 752.488281 775.609375 746.964844 778.058594 741.382812 780.371094 C 735.796875 782.683594 730.160156 784.859375 724.46875 786.894531 C 718.777344 788.929688 713.042969 790.828125 707.257812 792.582031 C 701.472656 794.335938 695.648438 795.945312 689.789062 797.414062 C 683.925781 798.882812 678.027344 800.207031 672.101562 801.386719 C 666.171875 802.566406 660.21875 803.597656 654.242188 804.488281 C 648.261719 805.375 642.265625 806.113281 636.25 806.707031 C 630.234375 807.296875 624.210938 807.742188 618.171875 808.039062 C 612.136719 808.335938 606.097656 808.484375 600.050781 808.484375 C 594.007812 808.484375 587.96875 808.335938 581.929688 808.039062 C 575.894531 807.742188 569.867188 807.296875 563.851562 806.707031 C 557.839844 806.113281 551.839844 805.375 545.863281 804.488281 C 539.882812 803.597656 533.929688 802.566406 528.003906 801.386719 C 522.074219 800.207031 516.179688 798.882812 510.316406 797.414062 C 504.453125 795.945312 498.628906 794.335938 492.847656 792.582031 C 487.0625 790.828125 481.324219 788.929688 475.632812 786.894531 C 469.945312 784.859375 464.304688 782.683594 458.722656 780.371094 C 453.136719 778.058594 447.613281 775.609375 442.152344 773.027344 C 436.6875 770.441406 431.289062 767.726562 425.960938 764.875 C 420.628906 762.027344 415.371094 759.046875 410.1875 755.941406 C 405.003906 752.832031 399.898438 749.601562 394.871094 746.242188 C 389.847656 742.886719 384.90625 739.40625 380.050781 735.804688 C 375.199219 732.207031 370.433594 728.488281 365.761719 724.652344 C 361.089844 720.820312 356.515625 716.871094 352.035156 712.8125 C 347.558594 708.753906 343.183594 704.589844 338.910156 700.316406 C 334.632812 696.039062 330.46875 691.664062 326.410156 687.1875 C 322.351562 682.707031 318.402344 678.132812 314.570312 673.460938 C 310.734375 668.789062 307.019531 664.023438 303.417969 659.171875 C 299.816406 654.316406 296.335938 649.375 292.980469 644.351562 C 289.621094 639.324219 286.390625 634.21875 283.28125 629.035156 C 280.175781 623.851562 277.195312 618.59375 274.347656 613.265625 C 271.5 607.933594 268.78125 602.535156 266.199219 597.074219 C 263.613281 591.609375 261.164062 586.085938 258.851562 580.5 C 256.539062 574.917969 254.363281 569.28125 252.328125 563.589844 C 250.292969 557.898438 248.394531 552.160156 246.640625 546.378906 C 244.886719 540.59375 243.277344 534.769531 241.808594 528.90625 C 240.339844 523.042969 239.015625 517.148438 237.835938 511.21875 C 236.65625 505.292969 235.625 499.339844 234.738281 493.359375 C 233.851562 487.382812 233.109375 481.386719 232.519531 475.371094 C 231.925781 469.355469 231.480469 463.328125 231.183594 457.292969 C 230.886719 451.253906 230.738281 445.214844 230.738281 439.171875 C 230.738281 433.128906 230.886719 427.085938 231.183594 421.050781 C 231.480469 415.011719 231.925781 408.988281 232.519531 402.972656 C 233.109375 396.957031 233.851562 390.960938 234.738281 384.980469 C 235.625 379.003906 236.65625 373.050781 237.835938 367.121094 C 239.015625 361.195312 240.339844 355.296875 241.808594 349.4375 C 243.277344 343.574219 244.886719 337.75 246.640625 331.964844 C 248.394531 326.183594 250.292969 320.445312 252.328125 314.753906 C 254.363281 309.0625 256.539062 303.425781 258.851562 297.839844 C 261.164062 292.257812 263.613281 286.734375 266.199219 281.269531 C 268.78125 275.804688 271.5 270.410156 274.347656 265.078125 C 277.195312 259.75 280.175781 254.492188 283.28125 249.308594 C 286.390625 244.121094 289.621094 239.019531 292.980469 233.992188 C 296.335938 228.96875 299.816406 224.027344 303.417969 219.171875 C 307.019531 214.316406 310.734375 209.554688 314.570312 204.882812 C 318.402344 200.210938 322.351562 195.632812 326.410156 191.15625 C 330.46875 186.679688 334.632812 182.300781 338.910156 178.027344 C 343.183594 173.753906 347.558594 169.585938 352.035156 165.527344 C 356.515625 161.46875 361.089844 157.523438 365.761719 153.6875 C 370.433594 149.855469 375.199219 146.136719 380.050781 142.535156 C 384.90625 138.9375 389.847656 135.457031 394.871094 132.097656 C 399.898438 128.742188 405.003906 125.507812 410.1875 122.402344 C 415.371094 119.292969 420.628906 116.316406 425.960938 113.46875 C 431.289062 110.617188 436.6875 107.902344 442.152344 105.316406 C 447.613281 102.734375 453.136719 100.285156 458.722656 97.972656 C 464.304688 95.65625 469.945312 93.484375 475.632812 91.449219 C 481.324219 89.410156 487.0625 87.515625 492.847656 85.761719 C 498.628906 84.007812 504.453125 82.394531 510.316406 80.925781 C 516.179688 79.457031 522.074219 78.132812 528.003906 76.957031 C 533.929688 75.777344 539.882812 74.742188 545.863281 73.855469 C 551.839844 72.96875 557.839844 72.230469 563.851562 71.636719 C 569.867188 71.042969 575.894531 70.601562 581.929688 70.304688 C 587.96875 70.007812 594.007812 69.859375 600.050781 69.859375 C 606.097656 69.859375 612.136719 70.007812 618.171875 70.304688 C 624.210938 70.601562 630.234375 71.042969 636.25 71.636719 C 642.265625 72.230469 648.261719 72.96875 654.242188 73.855469 C 660.21875 74.742188 666.171875 75.777344 672.101562 76.957031 C 678.027344 78.132812 683.925781 79.457031 689.789062 80.925781 C 695.648438 82.394531 701.472656 84.007812 707.257812 85.761719 C 713.042969 87.515625 718.777344 89.410156 724.46875 91.449219 C 730.160156 93.484375 735.796875 95.65625 741.382812 97.972656 C 746.964844 100.285156 752.488281 102.734375 757.953125 105.316406 C 763.417969 107.902344 768.8125 110.617188 774.144531 113.46875 C 779.476562 116.316406 784.730469 119.292969 789.917969 122.402344 C 795.101562 125.507812 800.207031 128.742188 805.230469 132.097656 C 810.257812 135.457031 815.195312 138.9375 820.050781 142.535156 C 824.90625 146.136719 829.667969 149.855469 834.339844 153.6875 C 839.011719 157.523438 843.589844 161.46875 848.066406 165.527344 C 852.546875 169.585938 856.921875 173.753906 861.195312 178.027344 C 865.46875 182.300781 869.636719 186.679688 873.695312 191.15625 C 877.753906 195.632812 881.699219 200.210938 885.535156 204.882812 C 889.367188 209.554688 893.085938 214.316406 896.6875 219.171875 C 900.285156 224.027344 903.765625 228.96875 907.125 233.992188 C 910.480469 239.019531 913.714844 244.121094 916.820312 249.308594 C 919.929688 254.492188 922.90625 259.75 925.757812 265.078125 C 928.605469 270.410156 931.320312 275.804688 933.90625 281.269531 C 936.492188 286.734375 938.9375 292.257812 941.25 297.839844 C 943.566406 303.425781 945.738281 309.0625 947.777344 314.753906 C 949.8125 320.445312 951.707031 326.183594 953.460938 331.964844 C 955.214844 337.75 956.828125 343.574219 958.296875 349.4375 C 959.765625 355.296875 961.089844 361.195312 962.269531 367.121094 C 963.445312 373.050781 964.480469 379.003906 965.367188 384.980469 C 966.253906 390.960938 966.992188 396.957031 967.585938 402.972656 C 968.179688 408.988281 968.621094 415.011719 968.917969 421.050781 C 969.214844 427.085938 969.363281 433.128906 969.363281 439.171875 Z M 969.363281 439.171875 " fill-opacity="1" fill-rule="nonzero"/><path fill="#39ff14" d="M 917.636719 439.171875 C 917.636719 444.367188 917.511719 449.5625 917.253906 454.753906 C 917 459.945312 916.617188 465.128906 916.109375 470.300781 C 915.597656 475.472656 914.964844 480.628906 914.199219 485.769531 C 913.4375 490.914062 912.550781 496.03125 911.535156 501.128906 C 910.523438 506.226562 909.382812 511.296875 908.121094 516.339844 C 906.859375 521.378906 905.472656 526.386719 903.964844 531.363281 C 902.453125 536.335938 900.824219 541.269531 899.074219 546.164062 C 897.324219 551.054688 895.453125 555.90625 893.464844 560.707031 C 891.472656 565.507812 889.367188 570.257812 887.148438 574.957031 C 884.925781 579.65625 882.589844 584.296875 880.136719 588.878906 C 877.6875 593.464844 875.125 597.984375 872.453125 602.441406 C 869.78125 606.902344 867.003906 611.292969 864.113281 615.613281 C 861.226562 619.933594 858.234375 624.183594 855.140625 628.355469 C 852.042969 632.53125 848.847656 636.628906 845.550781 640.644531 C 842.253906 644.664062 838.859375 648.597656 835.367188 652.449219 C 831.878906 656.300781 828.292969 660.0625 824.621094 663.738281 C 820.945312 667.414062 817.179688 670.996094 813.328125 674.488281 C 809.480469 677.976562 805.542969 681.371094 801.527344 684.667969 C 797.507812 687.964844 793.414062 691.164062 789.238281 694.257812 C 785.0625 697.355469 780.816406 700.347656 776.492188 703.234375 C 772.171875 706.121094 767.78125 708.902344 763.324219 711.574219 C 758.867188 714.246094 754.34375 716.808594 749.761719 719.257812 C 745.175781 721.707031 740.535156 724.042969 735.835938 726.265625 C 731.140625 728.488281 726.390625 730.59375 721.585938 732.582031 C 716.785156 734.570312 711.9375 736.441406 707.042969 738.191406 C 702.148438 739.945312 697.214844 741.574219 692.242188 743.082031 C 687.269531 744.589844 682.261719 745.976562 677.21875 747.238281 C 672.175781 748.503906 667.109375 749.640625 662.011719 750.65625 C 656.914062 751.667969 651.792969 752.558594 646.652344 753.320312 C 641.511719 754.082031 636.351562 754.71875 631.179688 755.230469 C 626.007812 755.738281 620.828125 756.121094 615.636719 756.375 C 610.445312 756.628906 605.25 756.757812 600.050781 756.757812 C 594.855469 756.757812 589.660156 756.628906 584.46875 756.375 C 579.277344 756.121094 574.09375 755.738281 568.921875 755.226562 C 563.75 754.71875 558.59375 754.082031 553.453125 753.320312 C 548.3125 752.558594 543.191406 751.667969 538.09375 750.65625 C 532.996094 749.640625 527.925781 748.503906 522.882812 747.238281 C 517.84375 745.976562 512.835938 744.589844 507.863281 743.082031 C 502.886719 741.574219 497.953125 739.945312 493.058594 738.191406 C 488.167969 736.441406 483.320312 734.570312 478.515625 732.582031 C 473.714844 730.59375 468.964844 728.488281 464.265625 726.265625 C 459.566406 724.042969 454.925781 721.707031 450.34375 719.257812 C 445.757812 716.808594 441.238281 714.246094 436.78125 711.574219 C 432.320312 708.902344 427.933594 706.121094 423.609375 703.234375 C 419.289062 700.347656 415.039062 697.355469 410.867188 694.257812 C 406.691406 691.164062 402.59375 687.964844 398.578125 684.667969 C 394.558594 681.371094 390.625 677.976562 386.773438 674.488281 C 382.921875 670.996094 379.160156 667.414062 375.484375 663.738281 C 371.808594 660.0625 368.226562 656.300781 364.734375 652.449219 C 361.246094 648.597656 357.851562 644.664062 354.554688 640.644531 C 351.257812 636.628906 348.058594 632.53125 344.964844 628.355469 C 341.867188 624.183594 338.875 619.933594 335.988281 615.613281 C 333.101562 611.292969 330.320312 606.902344 327.648438 602.445312 C 324.976562 597.984375 322.414062 593.464844 319.964844 588.878906 C 317.515625 584.296875 315.179688 579.65625 312.957031 574.957031 C 310.734375 570.257812 308.628906 565.507812 306.640625 560.707031 C 304.652344 555.90625 302.78125 551.054688 301.03125 546.164062 C 299.277344 541.269531 297.648438 536.335938 296.140625 531.363281 C 294.632812 526.386719 293.246094 521.378906 291.984375 516.339844 C 290.71875 511.296875 289.582031 506.226562 288.566406 501.128906 C 287.554688 496.03125 286.664062 490.914062 285.902344 485.769531 C 285.140625 480.628906 284.503906 475.472656 283.996094 470.300781 C 283.484375 465.128906 283.101562 459.945312 282.847656 454.753906 C 282.59375 449.5625 282.464844 444.367188 282.464844 439.171875 C 282.464844 433.972656 282.59375 428.78125 282.847656 423.589844 C 283.101562 418.398438 283.484375 413.214844 283.996094 408.042969 C 284.503906 402.871094 285.140625 397.714844 285.902344 392.570312 C 286.664062 387.429688 287.554688 382.3125 288.566406 377.214844 C 289.582031 372.117188 290.71875 367.046875 291.984375 362.003906 C 293.246094 356.960938 294.632812 351.953125 296.140625 346.980469 C 297.648438 342.007812 299.277344 337.074219 301.03125 332.179688 C 302.78125 327.285156 304.652344 322.4375 306.640625 317.636719 C 308.628906 312.835938 310.734375 308.085938 312.957031 303.386719 C 315.179688 298.6875 317.515625 294.046875 319.964844 289.460938 C 322.414062 284.878906 324.976562 280.355469 327.648438 275.898438 C 330.320312 271.441406 333.101562 267.050781 335.988281 262.730469 C 338.875 258.40625 341.867188 254.160156 344.964844 249.984375 C 348.058594 245.808594 351.257812 241.714844 354.554688 237.695312 C 357.851562 233.679688 361.246094 229.746094 364.734375 225.894531 C 368.226562 222.042969 371.808594 218.277344 375.484375 214.605469 C 379.160156 210.929688 382.921875 207.347656 386.773438 203.855469 C 390.625 200.363281 394.558594 196.972656 398.578125 193.671875 C 402.59375 190.375 406.691406 187.179688 410.867188 184.082031 C 415.039062 180.988281 419.289062 177.996094 423.609375 175.109375 C 427.933594 172.21875 432.320312 169.441406 436.78125 166.769531 C 441.238281 164.097656 445.757812 161.535156 450.34375 159.085938 C 454.925781 156.636719 459.566406 154.300781 464.265625 152.078125 C 468.964844 149.855469 473.714844 147.75 478.515625 145.757812 C 483.320312 143.769531 488.167969 141.902344 493.058594 140.148438 C 497.953125 138.398438 502.886719 136.769531 507.863281 135.261719 C 512.835938 133.75 517.84375 132.367188 522.882812 131.101562 C 527.925781 129.839844 532.996094 128.703125 538.09375 127.6875 C 543.191406 126.671875 548.3125 125.785156 553.453125 125.023438 C 558.59375 124.257812 563.75 123.625 568.921875 123.113281 C 574.09375 122.605469 579.277344 122.222656 584.46875 121.96875 C 589.660156 121.710938 594.855469 121.585938 600.050781 121.585938 C 605.25 121.585938 610.445312 121.710938 615.636719 121.96875 C 620.828125 122.222656 626.007812 122.605469 631.179688 123.113281 C 636.351562 123.625 641.511719 124.257812 646.652344 125.023438 C 651.792969 125.785156 656.914062 126.671875 662.011719 127.6875 C 667.109375 128.703125 672.175781 129.839844 677.21875 131.101562 C 682.261719 132.367188 687.269531 133.75 692.242188 135.261719 C 697.214844 136.769531 702.148438 138.398438 707.042969 140.148438 C 711.9375 141.902344 716.785156 143.769531 721.585938 145.757812 C 726.390625 147.75 731.140625 149.855469 735.835938 152.078125 C 740.535156 154.300781 745.175781 156.636719 749.761719 159.085938 C 754.34375 161.535156 758.867188 164.097656 763.324219 166.769531 C 767.78125 169.441406 772.171875 172.21875 776.492188 175.109375 C 780.816406 177.996094 785.0625 180.988281 789.238281 184.082031 C 793.414062 187.179688 797.507812 190.375 801.527344 193.671875 C 805.542969 196.972656 809.480469 200.363281 813.328125 203.855469 C 817.179688 207.347656 820.945312 210.929688 824.621094 214.605469 C 828.292969 218.277344 831.878906 222.042969 835.367188 225.894531 C 838.859375 229.746094 842.253906 233.679688 845.550781 237.695312 C 848.847656 241.714844 852.042969 245.808594 855.140625 249.984375 C 858.234375 254.160156 861.226562 258.40625 864.113281 262.730469 C 867.003906 267.050781 869.78125 271.441406 872.453125 275.898438 C 875.125 280.355469 877.6875 284.878906 880.136719 289.460938 C 882.589844 294.046875 884.925781 298.6875 887.148438 303.386719 C 889.367188 308.085938 891.472656 312.835938 893.464844 317.636719 C 895.453125 322.4375 897.324219 327.285156 899.074219 332.179688 C 900.824219 337.074219 902.453125 342.007812 903.964844 346.980469 C 905.472656 351.953125 906.859375 356.960938 908.121094 362.003906 C 909.382812 367.046875 910.523438 372.117188 911.535156 377.214844 C 912.550781 382.3125 913.4375 387.429688 914.199219 392.570312 C 914.964844 397.714844 915.597656 402.871094 916.109375 408.042969 C 916.617188 413.214844 917 418.398438 917.253906 423.589844 C 917.511719 428.78125 917.636719 433.972656 917.636719 439.171875 Z M 917.636719 439.171875 " fill-opacity="1" fill-rule="nonzero"/><path fill="#ffffff" d="M 559.273438 335.425781 L 546.910156 283.246094 C 546.558594 281.757812 546.132812 280.296875 545.625 278.855469 C 545.121094 277.414062 544.539062 276.003906 543.886719 274.625 C 543.230469 273.246094 542.503906 271.90625 541.710938 270.601562 C 540.914062 269.300781 540.050781 268.042969 539.125 266.828125 C 538.195312 265.617188 537.207031 264.457031 536.15625 263.351562 C 535.105469 262.242188 534 261.191406 532.839844 260.199219 C 531.675781 259.210938 530.46875 258.28125 529.207031 257.417969 C 527.949219 256.554688 526.648438 255.757812 525.308594 255.03125 C 523.964844 254.304688 522.585938 253.648438 521.175781 253.066406 C 519.765625 252.484375 518.324219 251.980469 516.863281 251.546875 C 515.398438 251.117188 513.914062 250.765625 512.410156 250.492188 C 510.910156 250.21875 509.398438 250.023438 507.875 249.90625 C 506.351562 249.792969 504.828125 249.757812 503.300781 249.804688 C 501.777344 249.847656 500.257812 249.976562 498.742188 250.179688 C 497.230469 250.386719 495.734375 250.671875 494.25 251.035156 C 492.765625 251.398438 491.308594 251.839844 489.871094 252.355469 L 461.367188 262.617188 C 460.21875 263.03125 459.085938 263.496094 457.976562 264.003906 C 456.863281 264.515625 455.777344 265.070312 454.710938 265.671875 C 453.648438 266.273438 452.609375 266.921875 451.597656 267.609375 C 450.589844 268.300781 449.609375 269.03125 448.660156 269.800781 C 447.710938 270.574219 446.796875 271.386719 445.917969 272.234375 C 445.039062 273.082031 444.195312 273.96875 443.390625 274.886719 C 442.582031 275.808594 441.820312 276.761719 441.09375 277.746094 C 440.367188 278.730469 439.683594 279.742188 439.046875 280.785156 C 438.40625 281.828125 437.8125 282.894531 437.261719 283.988281 C 436.710938 285.078125 436.207031 286.195312 435.753906 287.328125 C 435.296875 288.464844 434.890625 289.617188 434.53125 290.785156 C 434.171875 291.953125 433.863281 293.136719 433.601562 294.332031 C 433.34375 295.527344 433.136719 296.730469 432.976562 297.941406 C 432.820312 299.15625 432.714844 300.375 432.660156 301.59375 C 432.605469 302.816406 432.601562 304.039062 432.648438 305.261719 C 432.695312 306.484375 432.796875 307.699219 432.945312 308.914062 C 442.878906 389.621094 488.601562 584.859375 698.882812 627.761719 C 700.957031 628.183594 703.050781 628.453125 705.167969 628.574219 C 707.28125 628.691406 709.394531 628.652344 711.503906 628.464844 C 713.613281 628.273438 715.699219 627.929688 717.757812 627.433594 C 719.816406 626.9375 721.832031 626.296875 723.796875 625.507812 C 725.761719 624.71875 727.660156 623.789062 729.492188 622.722656 C 731.320312 621.65625 733.0625 620.464844 734.71875 619.144531 C 736.375 617.820312 737.925781 616.386719 739.375 614.839844 C 740.820312 613.292969 742.144531 611.648438 743.351562 609.90625 L 759.710938 586.273438 C 760.523438 585.101562 761.273438 583.894531 761.964844 582.648438 C 762.65625 581.402344 763.285156 580.128906 763.851562 578.820312 C 764.417969 577.515625 764.921875 576.183594 765.355469 574.828125 C 765.792969 573.472656 766.160156 572.097656 766.460938 570.707031 C 766.761719 569.3125 766.992188 567.910156 767.15625 566.496094 C 767.320312 565.082031 767.414062 563.660156 767.4375 562.238281 C 767.460938 560.8125 767.414062 559.390625 767.296875 557.972656 C 767.179688 556.554688 766.996094 555.144531 766.742188 553.742188 C 766.484375 552.339844 766.164062 550.957031 765.773438 549.585938 C 765.382812 548.214844 764.925781 546.871094 764.402344 545.546875 C 763.878906 544.21875 763.292969 542.925781 762.640625 541.65625 C 761.992188 540.390625 761.277344 539.160156 760.507812 537.960938 C 759.734375 536.765625 758.90625 535.609375 758.023438 534.492188 C 757.136719 533.378906 756.199219 532.308594 755.210938 531.285156 C 754.21875 530.261719 753.179688 529.289062 752.09375 528.367188 C 751.011719 527.445312 749.882812 526.578125 748.710938 525.769531 L 748.433594 525.578125 L 712.480469 501.101562 C 711.515625 500.445312 710.527344 499.824219 709.511719 499.25 C 708.496094 498.671875 707.460938 498.136719 706.402344 497.640625 C 705.34375 497.148438 704.269531 496.699219 703.171875 496.289062 C 702.078125 495.882812 700.96875 495.519531 699.847656 495.203125 C 698.722656 494.886719 697.589844 494.613281 696.445312 494.386719 C 695.296875 494.160156 694.144531 493.980469 692.984375 493.847656 C 691.824219 493.710938 690.660156 493.625 689.496094 493.585938 C 688.328125 493.546875 687.160156 493.554688 685.996094 493.605469 C 684.828125 493.660156 683.667969 493.761719 682.507812 493.910156 C 681.351562 494.058594 680.199219 494.25 679.058594 494.492188 C 677.914062 494.730469 676.78125 495.019531 675.664062 495.351562 C 674.542969 495.679688 673.441406 496.058594 672.351562 496.476562 C 671.261719 496.898438 670.191406 497.363281 669.136719 497.867188 C 668.085938 498.375 667.058594 498.921875 666.050781 499.511719 C 665.042969 500.101562 664.058594 500.730469 663.101562 501.402344 C 662.144531 502.070312 661.214844 502.777344 660.316406 503.519531 C 659.421875 504.257812 658.5 504.964844 657.550781 505.628906 C 656.597656 506.296875 655.625 506.921875 654.625 507.511719 C 653.621094 508.097656 652.601562 508.644531 651.554688 509.152344 C 650.511719 509.660156 649.449219 510.121094 648.367188 510.542969 C 647.285156 510.964844 646.1875 511.339844 645.074219 511.671875 C 643.964844 512.007812 642.839844 512.292969 641.707031 512.535156 C 640.570312 512.78125 639.429688 512.976562 638.277344 513.128906 C 637.125 513.277344 635.972656 513.382812 634.8125 513.441406 C 633.652344 513.5 632.492188 513.511719 631.332031 513.476562 C 630.171875 513.441406 629.015625 513.363281 627.863281 513.234375 C 626.710938 513.105469 625.5625 512.933594 624.421875 512.714844 C 623.28125 512.496094 622.152344 512.230469 621.035156 511.921875 C 619.917969 511.609375 618.8125 511.257812 617.722656 510.859375 C 616.632812 510.460938 615.558594 510.015625 614.503906 509.53125 C 613.449219 509.046875 612.417969 508.523438 611.40625 507.953125 C 610.394531 507.386719 609.40625 506.78125 608.441406 506.132812 C 586.570312 491.398438 556.96875 466.964844 537.742188 433.09375 C 536.664062 431.203125 535.734375 429.246094 534.949219 427.21875 C 534.164062 425.191406 533.535156 423.117188 533.0625 420.996094 C 532.585938 418.875 532.273438 416.726562 532.121094 414.558594 C 531.964844 412.390625 531.972656 410.222656 532.144531 408.054688 C 532.316406 405.886719 532.648438 403.746094 533.136719 401.628906 C 533.628906 399.507812 534.273438 397.441406 535.074219 395.417969 C 535.875 393.398438 536.824219 391.445312 537.914062 389.566406 C 539.007812 387.6875 540.234375 385.898438 541.59375 384.203125 L 550.84375 372.703125 C 551.878906 371.417969 552.835938 370.078125 553.71875 368.683594 C 554.601562 367.285156 555.398438 365.847656 556.117188 364.359375 C 556.835938 362.875 557.46875 361.351562 558.011719 359.792969 C 558.554688 358.234375 559.011719 356.652344 559.375 355.039062 C 559.738281 353.429688 560.007812 351.804688 560.1875 350.164062 C 560.367188 348.523438 560.453125 346.878906 560.445312 345.226562 C 560.4375 343.578125 560.332031 341.933594 560.136719 340.292969 C 559.941406 338.65625 559.652344 337.03125 559.273438 335.425781 Z M 559.273438 335.425781 " fill-opacity="1" fill-rule="nonzero"/></svg>