<svg xmlns="http://www.w3.org/2000/svg" xmlns:xlink="http://www.w3.org/1999/xlink" width="1600" zoomAndPan="magnify" viewBox="0 0 1200 899.99999" height="1200" preserveAspectRatio="xMidYMid meet" version="1.0"><defs><clipPath id="181ac1f81f"><path d="M 175.539062 14.652344 L 1024.539062 14.652344 L 1024.539062 873 L 175.539062 873 Z M 175.539062 14.652344 " clip-rule="nonzero"/></clipPath></defs><g clip-path="url(#181ac1f81f)"><path fill="#278d46" d="M 1024.507812 439.199219 C 1024.507812 673.589844 834.488281 863.605469 600.09375 863.605469 C 583 863.628906 565.964844 862.621094 548.996094 860.582031 C 532.023438 858.539062 515.234375 855.480469 498.636719 851.402344 C 482.035156 847.324219 465.742188 842.257812 449.757812 836.199219 C 433.773438 830.144531 418.210938 823.144531 403.074219 815.199219 C 402.910156 815.273438 402.742188 815.34375 402.570312 815.417969 L 274.636719 868.578125 C 234.605469 885.214844 194.234375 845.605469 210.097656 805.265625 L 256.222656 688 C 249.710938 679.03125 243.5625 669.816406 237.777344 660.363281 C 231.992188 650.910156 226.589844 641.242188 221.566406 631.359375 C 216.539062 621.480469 211.914062 611.417969 207.679688 601.175781 C 203.449219 590.929688 199.625 580.535156 196.210938 569.988281 C 192.796875 559.445312 189.804688 548.78125 187.230469 538 C 184.65625 527.21875 182.507812 516.355469 180.789062 505.402344 C 179.070312 494.453125 177.785156 483.453125 176.929688 472.402344 C 176.078125 461.351562 175.660156 450.285156 175.675781 439.199219 C 175.675781 204.808594 365.695312 14.796875 600.09375 14.796875 C 834.488281 14.796875 1024.507812 204.808594 1024.507812 439.199219 Z M 1024.507812 439.199219 " fill-opacity="1" fill-rule="nonzero"/></g><path fill="#ffffff" d="M 969.441406 439.199219 C 969.441406 445.246094 969.292969 451.285156 968.996094 457.324219 C 968.699219 463.359375 968.253906 469.386719 967.664062 475.402344 C 967.070312 481.417969 966.332031 487.414062 965.441406 493.394531 C 964.554688 499.371094 963.523438 505.324219 962.34375 511.253906 C 961.164062 517.183594 959.839844 523.078125 958.371094 528.941406 C 956.902344 534.804688 955.292969 540.628906 953.535156 546.414062 C 951.78125 552.195312 949.886719 557.933594 947.851562 563.625 C 945.8125 569.316406 943.640625 574.953125 941.324219 580.539062 C 939.011719 586.125 936.5625 591.648438 933.980469 597.113281 C 931.394531 602.574219 928.679688 607.972656 925.828125 613.304688 C 922.980469 618.636719 920 623.890625 916.894531 629.078125 C 913.785156 634.261719 910.550781 639.367188 907.195312 644.390625 C 903.835938 649.417969 900.355469 654.359375 896.753906 659.214844 C 893.15625 664.070312 889.4375 668.832031 885.601562 673.503906 C 881.769531 678.175781 877.820312 682.753906 873.761719 687.230469 C 869.703125 691.710938 865.535156 696.085938 861.261719 700.359375 C 856.988281 704.632812 852.609375 708.800781 848.132812 712.859375 C 843.652344 716.917969 839.078125 720.867188 834.40625 724.703125 C 829.730469 728.535156 824.96875 732.253906 820.113281 735.855469 C 815.257812 739.453125 810.316406 742.933594 805.292969 746.292969 C 800.265625 749.652344 795.160156 752.882812 789.976562 755.992188 C 784.789062 759.097656 779.53125 762.078125 774.203125 764.925781 C 768.871094 767.777344 763.472656 770.492188 758.007812 773.078125 C 752.546875 775.660156 747.019531 778.109375 741.4375 780.421875 C 735.851562 782.734375 730.214844 784.910156 724.523438 786.945312 C 718.832031 788.984375 713.09375 790.878906 707.308594 792.632812 C 701.523438 794.386719 695.699219 796 689.835938 797.46875 C 683.972656 798.9375 678.078125 800.261719 672.148438 801.441406 C 666.21875 802.621094 660.265625 803.652344 654.289062 804.539062 C 648.308594 805.425781 642.3125 806.167969 636.296875 806.757812 C 630.28125 807.351562 624.253906 807.796875 618.214844 808.09375 C 612.179688 808.390625 606.136719 808.535156 600.09375 808.535156 C 594.046875 808.535156 588.007812 808.390625 581.96875 808.09375 C 575.933594 807.796875 569.90625 807.351562 563.890625 806.757812 C 557.875 806.167969 551.878906 805.425781 545.898438 804.539062 C 539.917969 803.652344 533.964844 802.621094 528.035156 801.441406 C 522.109375 800.261719 516.210938 798.9375 510.347656 797.46875 C 504.484375 796 498.660156 794.386719 492.875 792.632812 C 487.09375 790.878906 481.355469 788.984375 475.664062 786.945312 C 469.972656 784.910156 464.332031 782.734375 458.75 780.421875 C 453.164062 778.109375 447.640625 775.660156 442.175781 773.078125 C 436.710938 770.492188 431.3125 767.777344 425.984375 764.925781 C 420.652344 762.078125 415.394531 759.097656 410.210938 755.992188 C 405.023438 752.882812 399.921875 749.652344 394.894531 746.292969 C 389.867188 742.933594 384.925781 739.453125 380.074219 735.855469 C 375.21875 732.253906 370.453125 728.535156 365.78125 724.703125 C 361.109375 720.867188 356.53125 716.917969 352.054688 712.859375 C 347.574219 708.800781 343.199219 704.632812 338.925781 700.359375 C 334.648438 696.085938 330.484375 691.710938 326.425781 687.230469 C 322.363281 682.753906 318.417969 678.175781 314.582031 673.503906 C 310.75 668.832031 307.03125 664.070312 303.429688 659.214844 C 299.828125 654.359375 296.347656 649.417969 292.992188 644.390625 C 289.632812 639.367188 286.398438 634.261719 283.292969 629.078125 C 280.183594 623.890625 277.207031 618.636719 274.355469 613.304688 C 271.507812 607.972656 268.789062 602.574219 266.207031 597.113281 C 263.621094 591.648438 261.171875 586.125 258.859375 580.539062 C 256.546875 574.953125 254.371094 569.316406 252.335938 563.625 C 250.300781 557.933594 248.402344 552.195312 246.648438 546.414062 C 244.894531 540.628906 243.28125 534.804688 241.8125 528.941406 C 240.34375 523.078125 239.019531 517.183594 237.839844 511.253906 C 236.664062 505.324219 235.628906 499.371094 234.742188 493.394531 C 233.855469 487.414062 233.117188 481.417969 232.523438 475.402344 C 231.929688 469.386719 231.484375 463.359375 231.191406 457.324219 C 230.894531 451.285156 230.746094 445.246094 230.746094 439.199219 C 230.746094 433.15625 230.894531 427.113281 231.191406 421.078125 C 231.484375 415.039062 231.929688 409.015625 232.523438 403 C 233.117188 396.984375 233.855469 390.984375 234.742188 385.007812 C 235.628906 379.027344 236.664062 373.074219 237.839844 367.144531 C 239.019531 361.21875 240.34375 355.320312 241.8125 349.457031 C 243.28125 343.59375 244.894531 337.769531 246.648438 331.988281 C 248.402344 326.203125 250.300781 320.464844 252.335938 314.773438 C 254.371094 309.082031 256.546875 303.445312 258.859375 297.859375 C 261.171875 292.277344 263.621094 286.753906 266.207031 281.289062 C 268.789062 275.824219 271.507812 270.425781 274.355469 265.09375 C 277.207031 259.765625 280.183594 254.507812 283.292969 249.324219 C 286.398438 244.136719 289.632812 239.03125 292.992188 234.007812 C 296.347656 228.980469 299.828125 224.039062 303.429688 219.1875 C 307.03125 214.332031 310.75 209.566406 314.582031 204.894531 C 318.417969 200.222656 322.363281 195.648438 326.425781 191.167969 C 330.484375 186.691406 334.648438 182.3125 338.925781 178.039062 C 343.199219 173.765625 347.574219 169.597656 352.054688 165.539062 C 356.53125 161.480469 361.109375 157.53125 365.78125 153.699219 C 370.453125 149.863281 375.21875 146.144531 380.074219 142.546875 C 384.925781 138.945312 389.867188 135.464844 394.894531 132.105469 C 399.921875 128.75 405.023438 125.515625 410.210938 122.410156 C 415.394531 119.300781 420.652344 116.324219 425.984375 113.472656 C 431.3125 110.625 436.710938 107.90625 442.175781 105.324219 C 447.640625 102.738281 453.164062 100.289062 458.75 97.976562 C 464.332031 95.664062 469.972656 93.488281 475.664062 91.453125 C 481.355469 89.417969 487.09375 87.519531 492.875 85.765625 C 498.660156 84.011719 504.484375 82.398438 510.347656 80.929688 C 516.210938 79.460938 522.109375 78.136719 528.035156 76.960938 C 533.964844 75.78125 539.917969 74.746094 545.898438 73.859375 C 551.878906 72.972656 557.875 72.234375 563.890625 71.640625 C 569.90625 71.046875 575.933594 70.605469 581.96875 70.308594 C 588.007812 70.011719 594.046875 69.863281 600.09375 69.863281 C 606.136719 69.863281 612.179688 70.011719 618.214844 70.308594 C 624.253906 70.605469 630.28125 71.046875 636.296875 71.640625 C 642.3125 72.234375 648.308594 72.972656 654.289062 73.859375 C 660.265625 74.746094 666.21875 75.78125 672.148438 76.960938 C 678.078125 78.136719 683.972656 79.460938 689.835938 80.929688 C 695.699219 82.398438 701.523438 84.011719 707.308594 85.765625 C 713.09375 87.519531 718.832031 89.417969 724.523438 91.453125 C 730.214844 93.488281 735.851562 95.664062 741.4375 97.976562 C 747.019531 100.289062 752.546875 102.738281 758.007812 105.324219 C 763.472656 107.90625 768.871094 110.625 774.203125 113.472656 C 779.53125 116.324219 784.789062 119.300781 789.976562 122.410156 C 795.160156 125.515625 800.265625 128.75 805.292969 132.105469 C 810.316406 135.464844 815.257812 138.945312 820.113281 142.546875 C 824.96875 146.144531 829.730469 149.863281 834.40625 153.699219 C 839.078125 157.53125 843.652344 161.480469 848.132812 165.539062 C 852.609375 169.597656 856.988281 173.765625 861.261719 178.039062 C 865.535156 182.3125 869.703125 186.691406 873.761719 191.167969 C 877.820312 195.648438 881.769531 200.222656 885.601562 204.894531 C 889.4375 209.566406 893.15625 214.332031 896.757812 219.1875 C 900.355469 224.039062 903.835938 228.980469 907.195312 234.007812 C 910.550781 239.03125 913.785156 244.136719 916.894531 249.324219 C 920 254.507812 922.980469 259.765625 925.828125 265.09375 C 928.679688 270.425781 931.394531 275.824219 933.980469 281.289062 C 936.5625 286.753906 939.011719 292.277344 941.324219 297.859375 C 943.640625 303.445312 945.8125 309.082031 947.851562 314.773438 C 949.886719 320.464844 951.78125 326.203125 953.535156 331.988281 C 955.292969 337.769531 956.902344 343.59375 958.371094 349.457031 C 959.839844 355.320312 961.164062 361.21875 962.34375 367.144531 C 963.523438 373.074219 964.554688 379.027344 965.441406 385.007812 C 966.332031 390.984375 967.070312 396.984375 967.664062 403 C 968.253906 409.015625 968.699219 415.039062 968.996094 421.078125 C 969.292969 427.113281 969.441406 433.15625 969.441406 439.199219 Z M 969.441406 439.199219 " fill-opacity="1" fill-rule="nonzero"/><path fill="#278d46" d="M 917.710938 439.199219 C 917.710938 444.398438 917.582031 449.59375 917.328125 454.785156 C 917.070312 459.976562 916.691406 465.15625 916.179688 470.332031 C 915.671875 475.503906 915.035156 480.660156 914.273438 485.800781 C 913.507812 490.945312 912.621094 496.0625 911.605469 501.160156 C 910.59375 506.261719 909.453125 511.328125 908.191406 516.371094 C 906.929688 521.414062 905.542969 526.421875 904.035156 531.394531 C 902.523438 536.371094 900.894531 541.304688 899.144531 546.199219 C 897.390625 551.09375 895.523438 555.941406 893.53125 560.742188 C 891.542969 565.546875 889.4375 570.296875 887.214844 574.996094 C 884.992188 579.695312 882.65625 584.335938 880.207031 588.917969 C 877.753906 593.503906 875.195312 598.023438 872.523438 602.484375 C 869.847656 606.941406 867.070312 611.332031 864.183594 615.652344 C 861.292969 619.976562 858.300781 624.222656 855.207031 628.398438 C 852.109375 632.574219 848.910156 636.667969 845.613281 640.6875 C 842.316406 644.707031 838.921875 648.640625 835.429688 652.492188 C 831.941406 656.34375 828.359375 660.105469 824.683594 663.78125 C 821.007812 667.457031 817.242188 671.039062 813.390625 674.53125 C 809.539062 678.023438 805.605469 681.417969 801.585938 684.714844 C 797.570312 688.011719 793.472656 691.207031 789.296875 694.304688 C 785.121094 697.402344 780.875 700.394531 776.550781 703.28125 C 772.230469 706.167969 767.839844 708.949219 763.378906 711.621094 C 758.921875 714.292969 754.402344 716.855469 749.816406 719.304688 C 745.230469 721.753906 740.589844 724.089844 735.890625 726.3125 C 731.191406 728.535156 726.441406 730.640625 721.640625 732.632812 C 716.835938 734.621094 711.988281 736.492188 707.09375 738.242188 C 702.199219 739.992188 697.265625 741.621094 692.292969 743.132812 C 687.316406 744.640625 682.308594 746.027344 677.265625 747.289062 C 672.226562 748.550781 667.15625 749.691406 662.058594 750.703125 C 656.957031 751.71875 651.839844 752.605469 646.695312 753.371094 C 641.554688 754.132812 636.398438 754.769531 631.226562 755.277344 C 626.050781 755.789062 620.871094 756.171875 615.675781 756.425781 C 610.484375 756.679688 605.289062 756.808594 600.09375 756.808594 C 594.894531 756.808594 589.699219 756.679688 584.507812 756.425781 C 579.316406 756.171875 574.132812 755.789062 568.960938 755.277344 C 563.789062 754.769531 558.628906 754.132812 553.488281 753.371094 C 548.347656 752.605469 543.226562 751.71875 538.128906 750.703125 C 533.03125 749.691406 527.960938 748.550781 522.917969 747.289062 C 517.875 746.027344 512.867188 744.640625 507.894531 743.132812 C 502.917969 741.621094 497.984375 739.992188 493.089844 738.242188 C 488.195312 736.492188 483.347656 734.621094 478.546875 732.632812 C 473.742188 730.640625 468.992188 728.535156 464.292969 726.3125 C 459.59375 724.089844 454.953125 721.753906 450.367188 719.304688 C 445.785156 716.855469 441.261719 714.292969 436.804688 711.621094 C 432.347656 708.949219 427.957031 706.167969 423.632812 703.28125 C 419.3125 700.394531 415.0625 697.402344 410.886719 694.304688 C 406.714844 691.207031 402.617188 688.011719 398.597656 684.714844 C 394.582031 681.417969 390.644531 678.023438 386.792969 674.53125 C 382.941406 671.039062 379.179688 667.457031 375.503906 663.78125 C 371.828125 660.105469 368.246094 656.34375 364.753906 652.492188 C 361.261719 648.640625 357.867188 644.707031 354.570312 640.6875 C 351.273438 636.667969 348.078125 632.574219 344.980469 628.398438 C 341.882812 624.222656 338.890625 619.976562 336.003906 615.652344 C 333.117188 611.332031 330.335938 606.941406 327.664062 602.484375 C 324.992188 598.023438 322.429688 593.503906 319.980469 588.917969 C 317.527344 584.335938 315.191406 579.695312 312.96875 574.996094 C 310.746094 570.296875 308.640625 565.546875 306.652344 560.742188 C 304.664062 555.941406 302.792969 551.09375 301.042969 546.199219 C 299.292969 541.304688 297.660156 536.371094 296.152344 531.398438 C 294.644531 526.421875 293.257812 521.414062 291.996094 516.371094 C 290.730469 511.328125 289.59375 506.261719 288.578125 501.160156 C 287.566406 496.0625 286.675781 490.945312 285.914062 485.800781 C 285.152344 480.660156 284.515625 475.503906 284.003906 470.332031 C 283.496094 465.15625 283.113281 459.976562 282.859375 454.785156 C 282.601562 449.59375 282.476562 444.398438 282.476562 439.199219 C 282.476562 434 282.601562 428.808594 282.859375 423.617188 C 283.113281 418.425781 283.496094 413.242188 284.003906 408.070312 C 284.515625 402.894531 285.152344 397.738281 285.914062 392.597656 C 286.675781 387.457031 287.566406 382.335938 288.578125 377.238281 C 289.59375 372.140625 290.730469 367.070312 291.996094 362.027344 C 293.257812 356.984375 294.644531 351.976562 296.152344 347.003906 C 297.660156 342.027344 299.292969 337.09375 301.042969 332.199219 C 302.792969 327.308594 304.664062 322.457031 306.652344 317.65625 C 308.640625 312.855469 310.746094 308.105469 312.96875 303.40625 C 315.191406 298.707031 317.527344 294.066406 319.980469 289.480469 C 322.429688 284.894531 324.992188 280.375 327.664062 275.917969 C 330.335938 271.457031 333.117188 267.066406 336.003906 262.746094 C 338.890625 258.425781 341.882812 254.175781 344.980469 250 C 348.078125 245.824219 351.273438 241.730469 354.570312 237.710938 C 357.867188 233.695312 361.261719 229.757812 364.753906 225.90625 C 368.246094 222.054688 371.828125 218.292969 375.503906 214.617188 C 379.179688 210.941406 382.941406 207.359375 386.792969 203.867188 C 390.644531 200.378906 394.582031 196.984375 398.597656 193.6875 C 402.617188 190.386719 406.714844 187.191406 410.886719 184.09375 C 415.0625 181 419.3125 178.007812 423.632812 175.117188 C 427.957031 172.230469 432.347656 169.449219 436.804688 166.777344 C 441.261719 164.105469 445.785156 161.546875 450.367188 159.09375 C 454.953125 156.644531 459.59375 154.308594 464.292969 152.085938 C 468.992188 149.863281 473.742188 147.757812 478.546875 145.769531 C 483.347656 143.78125 488.195312 141.910156 493.089844 140.15625 C 497.984375 138.40625 502.917969 136.777344 507.894531 135.269531 C 512.867188 133.757812 517.875 132.375 522.917969 131.109375 C 527.960938 129.847656 533.03125 128.707031 538.128906 127.695312 C 543.226562 126.679688 548.347656 125.792969 553.488281 125.03125 C 558.628906 124.265625 563.789062 123.632812 568.960938 123.121094 C 574.132812 122.613281 579.316406 122.230469 584.507812 121.976562 C 589.699219 121.71875 594.894531 121.59375 600.09375 121.59375 C 605.289062 121.59375 610.484375 121.71875 615.675781 121.976562 C 620.871094 122.230469 626.050781 122.613281 631.226562 123.121094 C 636.398438 123.632812 641.554688 124.265625 646.695312 125.03125 C 651.839844 125.792969 656.957031 126.679688 662.058594 127.695312 C 667.15625 128.707031 672.226562 129.847656 677.265625 131.109375 C 682.308594 132.375 687.316406 133.757812 692.292969 135.269531 C 697.265625 136.777344 702.199219 138.40625 707.09375 140.15625 C 711.988281 141.910156 716.835938 143.78125 721.640625 145.769531 C 726.441406 147.757812 731.191406 149.863281 735.890625 152.085938 C 740.589844 154.308594 745.230469 156.644531 749.816406 159.09375 C 754.402344 161.546875 758.921875 164.105469 763.378906 166.777344 C 767.839844 169.449219 772.230469 172.230469 776.550781 175.117188 C 780.875 178.007812 785.121094 181 789.296875 184.09375 C 793.472656 187.191406 797.570312 190.386719 801.585938 193.6875 C 805.605469 196.984375 809.539062 200.378906 813.390625 203.867188 C 817.242188 207.359375 821.007812 210.941406 824.683594 214.617188 C 828.359375 218.292969 831.941406 222.054688 835.429688 225.90625 C 838.921875 229.757812 842.316406 233.695312 845.613281 237.710938 C 848.910156 241.730469 852.109375 245.824219 855.207031 250 C 858.300781 254.175781 861.292969 258.425781 864.183594 262.746094 C 867.070312 267.066406 869.851562 271.457031 872.523438 275.917969 C 875.195312 280.375 877.753906 284.894531 880.207031 289.480469 C 882.65625 294.066406 884.992188 298.707031 887.214844 303.40625 C 889.4375 308.105469 891.542969 312.855469 893.53125 317.65625 C 895.523438 322.457031 897.390625 327.308594 899.144531 332.199219 C 900.894531 337.09375 902.523438 342.027344 904.035156 347.003906 C 905.542969 351.976562 906.929688 356.984375 908.191406 362.027344 C 909.453125 367.070312 910.59375 372.140625 911.605469 377.238281 C 912.621094 382.335938 913.507812 387.457031 914.273438 392.597656 C 915.035156 397.738281 915.671875 402.894531 916.179688 408.070312 C 916.691406 413.242188 917.070312 418.425781 917.328125 423.617188 C 917.582031 428.808594 917.710938 434 917.710938 439.199219 Z M 917.710938 439.199219 " fill-opacity="1" fill-rule="nonzero"/><path fill="#ffffff" d="M 559.308594 335.449219 L 546.949219 283.261719 C 546.597656 281.777344 546.167969 280.3125 545.660156 278.875 C 545.15625 277.433594 544.574219 276.023438 543.921875 274.644531 C 543.265625 273.265625 542.539062 271.921875 541.746094 270.621094 C 540.949219 269.316406 540.085938 268.058594 539.160156 266.847656 C 538.230469 265.632812 537.242188 264.472656 536.191406 263.367188 C 535.140625 262.257812 534.035156 261.207031 532.871094 260.21875 C 531.710938 259.226562 530.5 258.296875 529.242188 257.433594 C 527.984375 256.570312 526.683594 255.773438 525.339844 255.046875 C 523.996094 254.320312 522.621094 253.664062 521.210938 253.082031 C 519.796875 252.5 518.359375 251.996094 516.894531 251.5625 C 515.429688 251.132812 513.945312 250.78125 512.445312 250.507812 C 510.941406 250.234375 509.429688 250.039062 507.90625 249.921875 C 506.382812 249.808594 504.859375 249.773438 503.332031 249.820312 C 501.808594 249.867188 500.289062 249.992188 498.773438 250.195312 C 497.261719 250.402344 495.765625 250.6875 494.28125 251.050781 C 492.796875 251.414062 491.339844 251.855469 489.902344 252.371094 L 461.394531 262.632812 C 460.246094 263.046875 459.113281 263.511719 458.003906 264.023438 C 456.890625 264.53125 455.804688 265.085938 454.738281 265.691406 C 453.671875 266.292969 452.636719 266.9375 451.625 267.628906 C 450.617188 268.316406 449.636719 269.046875 448.6875 269.820312 C 447.738281 270.589844 446.824219 271.402344 445.945312 272.25 C 445.0625 273.101562 444.222656 273.984375 443.414062 274.90625 C 442.609375 275.824219 441.84375 276.777344 441.117188 277.761719 C 440.394531 278.746094 439.710938 279.761719 439.070312 280.804688 C 438.429688 281.847656 437.835938 282.914062 437.285156 284.003906 C 436.734375 285.097656 436.234375 286.210938 435.777344 287.347656 C 435.320312 288.480469 434.914062 289.632812 434.554688 290.804688 C 434.195312 291.972656 433.886719 293.15625 433.628906 294.351562 C 433.367188 295.546875 433.160156 296.75 433.003906 297.960938 C 432.84375 299.175781 432.738281 300.390625 432.683594 301.613281 C 432.628906 302.835938 432.625 304.058594 432.671875 305.28125 C 432.722656 306.503906 432.820312 307.71875 432.972656 308.933594 C 442.90625 389.648438 488.632812 584.898438 698.933594 627.800781 C 701.007812 628.226562 703.101562 628.496094 705.21875 628.613281 C 707.332031 628.730469 709.445312 628.695312 711.554688 628.503906 C 713.664062 628.3125 715.75 627.96875 717.808594 627.476562 C 719.871094 626.980469 721.882812 626.335938 723.847656 625.546875 C 725.816406 624.757812 727.714844 623.832031 729.542969 622.765625 C 731.375 621.699219 733.117188 620.503906 734.773438 619.183594 C 736.429688 617.863281 737.980469 616.429688 739.425781 614.878906 C 740.875 613.332031 742.199219 611.6875 743.40625 609.945312 L 759.769531 586.308594 C 760.578125 585.140625 761.328125 583.929688 762.023438 582.6875 C 762.714844 581.441406 763.34375 580.164062 763.910156 578.859375 C 764.476562 577.550781 764.976562 576.222656 765.414062 574.867188 C 765.847656 573.507812 766.21875 572.136719 766.519531 570.742188 C 766.820312 569.351562 767.050781 567.949219 767.214844 566.53125 C 767.378906 565.117188 767.46875 563.699219 767.492188 562.273438 C 767.515625 560.851562 767.472656 559.429688 767.355469 558.007812 C 767.238281 556.589844 767.054688 555.179688 766.796875 553.777344 C 766.542969 552.378906 766.21875 550.992188 765.828125 549.621094 C 765.4375 548.253906 764.980469 546.90625 764.457031 545.582031 C 763.933594 544.257812 763.347656 542.960938 762.699219 541.695312 C 762.046875 540.425781 761.335938 539.195312 760.5625 537.996094 C 759.792969 536.800781 758.964844 535.644531 758.078125 534.527344 C 757.195312 533.414062 756.257812 532.34375 755.265625 531.320312 C 754.273438 530.296875 753.238281 529.324219 752.152344 528.402344 C 751.066406 527.480469 749.9375 526.613281 748.765625 525.804688 L 748.488281 525.613281 L 712.53125 501.132812 C 711.566406 500.476562 710.578125 499.859375 709.5625 499.28125 C 708.546875 498.703125 707.511719 498.167969 706.453125 497.675781 C 705.394531 497.179688 704.320312 496.730469 703.222656 496.324219 C 702.128906 495.914062 701.019531 495.554688 699.898438 495.234375 C 698.773438 494.917969 697.640625 494.644531 696.492188 494.417969 C 695.347656 494.191406 694.195312 494.011719 693.035156 493.878906 C 691.875 493.746094 690.710938 493.65625 689.542969 493.617188 C 688.378906 493.578125 687.210938 493.585938 686.042969 493.640625 C 684.878906 493.695312 683.714844 493.792969 682.558594 493.941406 C 681.398438 494.089844 680.25 494.285156 679.105469 494.523438 C 677.960938 494.765625 676.832031 495.050781 675.710938 495.382812 C 674.59375 495.714844 673.488281 496.089844 672.398438 496.511719 C 671.308594 496.929688 670.238281 497.394531 669.1875 497.902344 C 668.132812 498.40625 667.105469 498.957031 666.097656 499.546875 C 665.089844 500.136719 664.105469 500.765625 663.148438 501.433594 C 662.191406 502.101562 661.261719 502.808594 660.363281 503.550781 C 659.46875 504.292969 658.546875 504.996094 657.597656 505.664062 C 656.644531 506.328125 655.671875 506.957031 654.667969 507.542969 C 653.667969 508.132812 652.644531 508.679688 651.601562 509.1875 C 650.558594 509.691406 649.492188 510.15625 648.414062 510.578125 C 647.332031 510.996094 646.234375 511.375 645.121094 511.707031 C 644.007812 512.039062 642.886719 512.328125 641.75 512.570312 C 640.617188 512.8125 639.472656 513.011719 638.320312 513.160156 C 637.171875 513.3125 636.015625 513.417969 634.855469 513.476562 C 633.699219 513.535156 632.539062 513.546875 631.378906 513.511719 C 630.21875 513.476562 629.058594 513.394531 627.90625 513.269531 C 626.753906 513.140625 625.605469 512.96875 624.464844 512.746094 C 623.328125 512.527344 622.195312 512.261719 621.078125 511.953125 C 619.960938 511.644531 618.855469 511.289062 617.765625 510.890625 C 616.675781 510.492188 615.601562 510.050781 614.546875 509.566406 C 613.492188 509.082031 612.460938 508.554688 611.445312 507.988281 C 610.433594 507.421875 609.445312 506.8125 608.484375 506.167969 C 586.609375 491.429688 557.003906 466.996094 537.777344 433.121094 C 536.699219 431.230469 535.769531 429.273438 534.984375 427.246094 C 534.199219 425.21875 533.570312 423.144531 533.097656 421.023438 C 532.621094 418.902344 532.308594 416.753906 532.152344 414.585938 C 532 412.417969 532.007812 410.25 532.179688 408.082031 C 532.351562 405.914062 532.679688 403.773438 533.171875 401.652344 C 533.664062 399.535156 534.308594 397.464844 535.109375 395.445312 C 535.910156 393.421875 536.855469 391.472656 537.949219 389.59375 C 539.042969 387.710938 540.269531 385.925781 541.628906 384.226562 L 550.878906 372.726562 C 551.914062 371.441406 552.875 370.101562 553.753906 368.707031 C 554.636719 367.308594 555.4375 365.871094 556.15625 364.382812 C 556.871094 362.898438 557.503906 361.375 558.046875 359.816406 C 558.59375 358.257812 559.046875 356.671875 559.410156 355.0625 C 559.773438 353.453125 560.046875 351.828125 560.226562 350.1875 C 560.40625 348.546875 560.488281 346.902344 560.480469 345.25 C 560.472656 343.597656 560.371094 341.953125 560.175781 340.316406 C 559.980469 338.675781 559.691406 337.054688 559.308594 335.449219 Z M 559.308594 335.449219 " fill-opacity="1" fill-rule="nonzero"/></svg>